<svg xmlns="http://www.w3.org/2000/svg" viewBox="0 0 240 240" width="240" height="240" role="img" aria-label="OQYGO — львёнок в очках с книгой">
  
  <g fill="#c2622f">
    <circle cx="120" cy="40" r="22" transform="rotate(15 120 100)"></circle>
    <circle cx="120" cy="40" r="22" transform="rotate(45 120 100)"></circle>
    <circle cx="120" cy="40" r="22" transform="rotate(75 120 100)"></circle>
    <circle cx="120" cy="40" r="22" transform="rotate(105 120 100)"></circle>
    <circle cx="120" cy="40" r="22" transform="rotate(135 120 100)"></circle>
    <circle cx="120" cy="40" r="22" transform="rotate(165 120 100)"></circle>
    <circle cx="120" cy="40" r="22" transform="rotate(195 120 100)"></circle>
    <circle cx="120" cy="40" r="22" transform="rotate(225 120 100)"></circle>
    <circle cx="120" cy="40" r="22" transform="rotate(255 120 100)"></circle>
    <circle cx="120" cy="40" r="22" transform="rotate(285 120 100)"></circle>
    <circle cx="120" cy="40" r="22" transform="rotate(315 120 100)"></circle>
    <circle cx="120" cy="40" r="22" transform="rotate(345 120 100)"></circle>
  </g>
  
  <g fill="#dd7a44">
    <circle cx="120" cy="42" r="19" transform="rotate(0 120 100)"></circle>
    <circle cx="120" cy="42" r="19" transform="rotate(30 120 100)"></circle>
    <circle cx="120" cy="42" r="19" transform="rotate(60 120 100)"></circle>
    <circle cx="120" cy="42" r="19" transform="rotate(90 120 100)"></circle>
    <circle cx="120" cy="42" r="19" transform="rotate(120 120 100)"></circle>
    <circle cx="120" cy="42" r="19" transform="rotate(150 120 100)"></circle>
    <circle cx="120" cy="42" r="19" transform="rotate(180 120 100)"></circle>
    <circle cx="120" cy="42" r="19" transform="rotate(210 120 100)"></circle>
    <circle cx="120" cy="42" r="19" transform="rotate(240 120 100)"></circle>
    <circle cx="120" cy="42" r="19" transform="rotate(270 120 100)"></circle>
    <circle cx="120" cy="42" r="19" transform="rotate(300 120 100)"></circle>
    <circle cx="120" cy="42" r="19" transform="rotate(330 120 100)"></circle>
  </g>
  
  <g id="ear-left"><circle cx="90" cy="54" r="15" fill="#f4b94e" stroke="#3a2c22" stroke-width="4"></circle><circle cx="90" cy="51" r="7" fill="#e8814a"></circle></g>
  <g id="ear-right"><circle cx="150" cy="54" r="15" fill="#f4b94e" stroke="#3a2c22" stroke-width="4"></circle><circle cx="150" cy="51" r="7" fill="#e8814a"></circle></g>
  
  <circle cx="120" cy="100" r="58" fill="#f4b94e" stroke="#3a2c22" stroke-width="4"></circle>
  <ellipse cx="96" cy="78" rx="26" ry="18" fill="#ffd071" opacity="0.5"></ellipse>
  
  <path d="M84,92 Q98,86 113,91" fill="none" stroke="#3a2c22" stroke-width="3.5" stroke-linecap="round"></path>
  <path d="M127,91 Q142,86 156,92" fill="none" stroke="#3a2c22" stroke-width="3.5" stroke-linecap="round"></path>
  
  <circle cx="98" cy="106" r="24" fill="#fffdf8" fill-opacity="0.16" stroke="#3a2c22" stroke-width="5"></circle>
  <circle cx="142" cy="106" r="24" fill="#fffdf8" fill-opacity="0.16" stroke="#3a2c22" stroke-width="5"></circle>
  <path d="M116,102 Q120,96 124,102" fill="none" stroke="#3a2c22" stroke-width="5" stroke-linecap="round"></path>
  <path d="M74,100 Q66,96 60,100" fill="none" stroke="#3a2c22" stroke-width="5" stroke-linecap="round"></path>
  <path d="M166,100 Q174,96 180,100" fill="none" stroke="#3a2c22" stroke-width="5" stroke-linecap="round"></path>
  
  <g id="eyes">
    <circle cx="98" cy="108" r="8.4" fill="#3a2c22"></circle>
    <circle cx="101" cy="104.8" r="3" fill="#fffdf8"></circle>
    <circle cx="95.5" cy="110.5" r="1.3" fill="#fffdf8"></circle>
    <circle cx="142" cy="108" r="8.4" fill="#3a2c22"></circle>
    <circle cx="145" cy="104.8" r="3" fill="#fffdf8"></circle>
    <circle cx="139.5" cy="110.5" r="1.3" fill="#fffdf8"></circle>
  </g>
  
  <path d="M113,128 Q120,122 127,128 Q120,136 113,128 Z" fill="#3a2c22"></path>
  <path d="M120,136 L120,140" stroke="#3a2c22" stroke-width="3.5" stroke-linecap="round"></path>
  <path d="M104,140 Q120,156 136,140" fill="none" stroke="#3a2c22" stroke-width="3.8" stroke-linecap="round"></path>
  
  <g id="book">
    <path d="M54,173 Q120,161 120,173 Q120,161 186,173 Q190,174 190,178 L190,208 Q190,212 186,211 Q120,200 120,209 Q120,200 54,211 Q50,212 50,208 L50,178 Q50,174 54,173 Z" fill="#4ea08f" stroke="#3a2c22" stroke-width="4.5" stroke-linejoin="round"></path>
    <path d="M120,173 L120,209" stroke="#3a2c22" stroke-width="4.5" stroke-linecap="round"></path>
    <line x1="70" y1="185" x2="104" y2="180" stroke="#bfe0d7" stroke-width="3.5" stroke-linecap="round"></line>
    <line x1="70" y1="195" x2="104" y2="190" stroke="#bfe0d7" stroke-width="3.5" stroke-linecap="round"></line>
    <line x1="136" y1="180" x2="170" y2="185" stroke="#bfe0d7" stroke-width="3.5" stroke-linecap="round"></line>
    <line x1="136" y1="190" x2="170" y2="195" stroke="#bfe0d7" stroke-width="3.5" stroke-linecap="round"></line>
  </g>
</svg>